<?xml version="1.0" encoding="utf-8"?>
<!-- Generator: Adobe Illustrator 28.3.0, SVG Export Plug-In . SVG Version: 6.00 Build 0)  -->
<svg version="1.1" id="Layer_1" xmlns="http://www.w3.org/2000/svg" xmlns:xlink="http://www.w3.org/1999/xlink" x="0px" y="0px"
	 viewBox="0 0 841.9 595.3" style="enable-background:new 0 0 841.9 595.3;" xml:space="preserve">
<style type="text/css">
	.st0{fill:#22C55E;}
	.st1{enable-background:new    ;}
	.st2{fill:#111827;}
</style>
<path class="st0" d="M217.2,181.1c-5.8,5-13.5,9-17.9,4.2c-13.4-14.7-16.3-33.2-6.9-50.3c9.1-16.6,27.4-24.7,46.4-20.1
	c6.2,1.5,10.4,1.1,15.4-3.7c8-7.7,19.7-6,26.3,2.5c6.7,8.5,5.3,19.8-4.1,26.2c-4.3,2.9-5.5,5.6-4.9,10.6c3.4,29.9-20.7,52-50.5,46.6
	C215.5,196.1,214.5,190.1,217.2,181.1z"/>
<path class="st0" d="M168.6,275c0,0,4-83.1-86.5-72.4s-135.7,122.7,74.1,248.2C156.1,450.8-57.4,164.3,168.6,275z"/>
<g class="st1">
	<path class="st2" d="M252.9,351.3c6.4,0,9.3-0.6,11.6-1c2.1-0.6,3.3-1,6.1-1c5.8,0,17.8,11.4,17.8,27.4c0,7.4-3.9,12.3-11.4,12.3
		c-12.9,0-12.7-17.5-20.3-17.5c-5.8,0-5.2,8-5.2,9.2v45.5c0,17.6,13.6,9.2,13.6,19.6c0,4.6-2.8,11.1-30.5,11.1
		c-7.6,0-35.3,0.3-35.3-11.1c0-7.9,9.2-4.7,12.2-10.4c1.5-3.1,2.1-12,2.2-15.7l1.2-32.8c0.6-15.6-2.5-15.4-4.6-15.4
		c-6.7,0-9.9,17.5-21.9,17.5c-5.8,0-9.2-5.3-9.2-10.7c0-12.6,10.7-29.1,19.1-29.1c1,0,2.7,0.4,5.5,1c2.8,0.4,6.8,1,12.7,1H252.9z"/>
	<path class="st2" d="M299.9,410.3c0-14.5-9.2-6.4-9.2-15.4c0-11.7,34.7-15,36-15c5.6,0,5.8,1.5,6.4,6.5c0.1,1.8,0,5.2,2.5,5.2
		c3.6,0,5.8-11.7,18.5-11.7c9.9,0,16.5,7.4,16.5,17.2c0,9.9-8.4,17.8-18.2,17.8c-9.6,0-12.3-8.4-16.2-8.4c-4.2,0-3.4,9.9-3.4,12.6
		c0,4.4,0.4,10.7,1.2,16.3c0.9,6.5,12.2,2.5,12.2,11.4c0,9.3-13,10.1-29.4,10.1c-6.8,0-27,0.3-27-9.9c0-6.2,6.8-6.2,8.4-11.4
		c1.2-3.7,1.6-12.2,1.6-16.3V410.3z"/>
	<path class="st2" d="M439.4,442.8c-7.3,19.7-16.8,39-40.9,39c-10.7,0-23.3-5.5-23.3-17.8c0-7.4,5.6-13.6,13.2-13.6
		c13.8,0,9.9,15.7,16,15.7c4,0,5.8-3.9,5.8-7.3c0-4.2-3-9.8-4.7-13.5l-20.8-43.4c-2.8-5.9-11.3-4.2-11.3-11c0-4.4,2.7-11,33.9-11
		c5.6,0,19,0.6,19,9c0,4-3.4,5.2-3.4,8.7c0,5.6,6.5,16,9,16c4.4,0,7.6-10.2,7.6-13.8c0-6.7-4.7-6.2-4.7-11.3
		c0-7.9,13.9-8.7,19.3-8.7c4.9,0,15.9,0.7,15.9,7.6c0,8.7-8.9,4.9-14.1,13.6c-3.3,5.2-5.6,11.7-7.7,17.5L439.4,442.8z"/>
	<path class="st2" d="M509.8,485.3c-27.4,0-37.8-10.4-37.8-19.9c0-8.6,8.2-8.7,8.2-11c0-1.9-8-6.1-8-12.6c0-10.5,12-13.6,12-15.7
		c0-1.8-10.1-8.6-10.1-19.6c0-17.9,22.4-26.2,37.4-26.2c7.6,0,17.8,2.8,23,2.8c11.3,0,16.9-7.9,19.1-7.9c3.4,0,4.9,4.4,4.9,7.3
		c0,8.3-8.3,14.2-8.3,15.9c0,1.5,0.4,3.1,0.4,4.6c0,20-23.3,26.8-39.6,26.8c-2.5,0-5-0.4-7.7-0.4c-2.5,0-4,1.6-4,4
		c0,4.6,6.5,5.5,9.9,5.5c4.6,0,21.8-2.5,27.7-2.5c15.4,0,21.9,8.7,21.9,17.6C558.9,467.4,546.1,485.3,509.8,485.3z M511.3,472.6
		c4.9,0,16-0.7,16-7.6c0-3.1-3-4.4-5.8-4.4c-2.2,0-8,0.9-12.7,0.9c-3.4,0-11.4-1.2-13-1.2c-1.3,0-1.8,1.3-1.8,2.4
		C493.9,470.5,505.5,472.6,511.3,472.6z M512.2,391.2c-5.8,0-8.3,5.5-8.3,10.7c0,5.6,1.5,17.9,9,17.9c6.7,0,8.9-5.8,8.9-11.6
		C521.8,402.1,520.5,391.2,512.2,391.2z"/>
	<path class="st2" d="M599.8,485.3c-27.4,0-37.8-10.4-37.8-19.9c0-8.6,8.2-8.7,8.2-11c0-1.9-8-6.1-8-12.6c0-10.5,12-13.6,12-15.7
		c0-1.8-10.1-8.6-10.1-19.6c0-17.9,22.4-26.2,37.4-26.2c7.6,0,17.8,2.8,23,2.8c11.3,0,16.9-7.9,19.1-7.9c3.4,0,4.9,4.4,4.9,7.3
		c0,8.3-8.3,14.2-8.3,15.9c0,1.5,0.4,3.1,0.4,4.6c0,20-23.3,26.8-39.6,26.8c-2.5,0-5-0.4-7.7-0.4c-2.5,0-4,1.6-4,4
		c0,4.6,6.5,5.5,9.9,5.5c4.6,0,21.8-2.5,27.7-2.5c15.4,0,21.9,8.7,21.9,17.6C648.8,467.4,636.1,485.3,599.8,485.3z M601.3,472.6
		c4.9,0,16-0.7,16-7.6c0-3.1-3-4.4-5.8-4.4c-2.2,0-8,0.9-12.7,0.9c-3.4,0-11.4-1.2-13-1.2c-1.3,0-1.8,1.3-1.8,2.4
		C583.9,470.5,595.5,472.6,601.3,472.6z M602.1,391.2c-5.8,0-8.3,5.5-8.3,10.7c0,5.6,1.5,17.9,9,17.9c6.7,0,8.9-5.8,8.9-11.6
		C611.8,402.1,610.4,391.2,602.1,391.2z"/>
	<path class="st2" d="M661.4,400.4c-4.3-8.2-12.6-3.6-12.6-11.6c0-3.7,1.9-8.9,29.8-8.9c5.2,0,25.1-0.3,25.1,7.6
		c0,4.9-5.6,5.9-5.6,9.8c0,3.4,5.5,14.5,9.2,14.5c5,0,10.2-12.6,10.2-15.6c0-3.7-5-5.2-5-9.5c0-7.4,16.3-6.8,20.8-6.8
		c4.3,0,15.4,0,15.4,6.5c0,7.1-9.6,3.9-13.9,12.2l-24.3,47.3c-4.9,9.3-8.9,11.4-12.3,11.4c-5.8,0-9.5-6.4-11.9-10.8L661.4,400.4z"/>
	<path class="st2" d="M786.7,421.1c-1.6,0-4-0.4-4,2.1c0,7.4,9.6,13.6,16.6,13.6c11.1,0,16.6-6.7,19.7-6.7s5.8,4.6,5.8,7.4
		c0,11.4-20.9,19.7-34.2,19.7c-26.7,0-40.5-19.3-40.5-38.4c0-22.8,19.4-39.4,41.7-39.4c25.2,0,36.3,19.4,36.3,30.5
		c0,9.8-4.4,11.1-9.2,11.1H786.7z M799.6,402.4c0-5.3-3.3-9.5-8.7-9.5c-4.9,0-8.9,5-8.9,9.8c0,5.3,5,4.2,8.9,4.2
		C794.9,406.9,799.6,407.8,799.6,402.4z"/>
</g>
<path class="st2" d="M151.9,154c0,2.3-0.2,4.5-0.5,6.7c-3.2,20-20.6,35.4-41.5,35.4c-23.2,0-42.1-18.8-42.1-42.1s18.8-42,42.1-42
	c17.2,0,32,10.4,38.5,25.2C150.7,142.3,151.9,148,151.9,154z"/>
<path class="st2" d="M179.1,275.1c0,0-4.6-70.9,86.5-72.4c66.2-1.1,123.9,49.2-6.9,127.9C258.7,330.6,358.3,192.5,179.1,275.1z"/>
</svg>
