<?xml version="1.0" encoding="utf-8"?>
<!-- Generator: Adobe Illustrator 28.3.0, SVG Export Plug-In . SVG Version: 6.00 Build 0)  -->
<svg version="1.1" id="Layer_1" xmlns="http://www.w3.org/2000/svg" xmlns:xlink="http://www.w3.org/1999/xlink" x="0px" y="0px"
	 viewBox="0 0 100 100" style="enable-background:new 0 0 100 100;" xml:space="preserve">
<style type="text/css">
	.st0{fill:#53BA65;}
	.st1{fill:#FFFFFF;}
</style>
<path class="st0" d="M62.5,22.5c-1.6,1.4-3.8,2.6-5.1,1.2c-3.8-4.2-4.6-9.4-2-14.3c2.6-4.7,7.8-7,13.2-5.7c1.8,0.4,3,0.3,4.4-1.1
	c2.3-2.2,5.6-1.7,7.5,0.7c1.9,2.4,1.5,5.6-1.2,7.4c-1.2,0.8-1.6,1.6-1.4,3c1,8.5-5.9,14.8-14.3,13.2C62,26.7,61.7,25,62.5,22.5z"/>
<path class="st0" d="M48.7,49.1c0,0,1.1-23.6-24.6-20.5s-38.5,34.8,21,70.5C45.1,99.1-15.5,17.7,48.7,49.1z"/>
<path class="st1" d="M43.9,14.8c0,0.6-0.1,1.3-0.2,1.9c-0.9,5.7-5.8,10-11.8,10c-6.6,0-11.9-5.3-11.9-11.9S25.4,2.8,32,2.8
	c4.9,0,9.1,2.9,10.9,7.1C43.6,11.5,43.9,13.1,43.9,14.8z"/>
<path class="st1" d="M51.7,49.2c0,0-1.3-20.1,24.6-20.5c18.8-0.3,35.2,14-2,36.3C74.3,64.9,102.5,25.7,51.7,49.2z"/>
</svg>
